# xmcd
# 
# Track frame offsets:
#     150
#     20295
#     38565
#     60439
#     74435
#     93240
#     111270
#     126747
#     178052
# 
# Disc length: 2554
# 
# Revision: 7
# Processed by: cddbd v1.5.2PL0 Copyright (c) Steve Scherf et al.
# Submitted via: fre:ac v1.0.17
# 
DISCID=7809f809
DTITLE=Charlie Daniels Band - Fire On The Mountain
DYEAR=1974
DGENRE=Country
TTITLE0=Caballo Diablo
TTITLE1=Long Haired Country Boy
TTITLE2=Trudy
TTITLE3=Georgia
TTITLE4=Feeling Free
TTITLE5=The South's Gonna Do It
TTITLE6=New York City, King Size Rosewood Bed
TTITLE7=No Place To Go (Live)
TTITLE8=Orange Blossom Special (Live)
EXTD=YEAR: 1974
EXTT0=
EXTT1=
EXTT2=
EXTT3=
EXTT4=
EXTT5=
EXTT6=
EXTT7=
EXTT8=
PLAYORDER=
